<svg xmlns="http://www.w3.org/2000/svg" version="1.1" viewBox="228.75 171.59 264.16 411.75">
 <g>
  <path d="m487.39 483.35h-34.641c0.95703 14.91 1.4062 29.965 2.9414 44.824 1.4023 13.559 5.5508 40.418-0.44922 39.785-6.6289 3.793-8.1562-29.871-8.8906-45.652-0.31641-17.312-4.0898-34.387-11.098-50.219-6.6367-14.488-15.848-26.066-32.359-29.145h-0.003907c-7.0352-1.7031-14.441-0.90625-20.953 2.2539-7.3008 4.0469-7.7031 8.4492-17.043 6.2617-7.1172-1.6641-11.129-6.8203-19.195-6.5586h-0.003906c-7.2266 0.73047-14.133 3.3516-20.027 7.5938-12.805 7.6211-23.18 18.723-29.922 32.012-6.7891 14.004-7.1758 29.547-10.238 44.547-3.7422 18.336 2.0898 55.328-6.207 54.27-13.805 1.0586-1.1758-71.559 8.4961-100.4-13.352 0-42.789 5.8984-50.918-8.3008-4.4844-7.832-3.4102-21.484-4.2031-29.945-1.4062-15.016-2.9883-30.023-3.625-45.098-2.2891-54.344 8.1602-117.04 35.828-164.4 11.445-19.594 24.602-42.766 44.715-54.504 20.816-12.148 45.582-10.719 67.926-3.8359 51.711 15.926 77.863 55.125 92.086 104.86 17.891 62.562 31.293 137.32 17.785 201.65zm-229.98-150.73c-2.0195 15.543 0.28906 45.293 10.996 57.797 10.238 11.953 37.113 7.1016 51.102 7 12.273-0.085937 25.359-3.4414 31.891 9.0391 3.707 7.0781 4.0078 15.578 7.0938 22.883 3.0195 7.1523 1.7148 16.129 12.59 13.379 4.9102-3.5664 4.5938-25.672 11.27-32.852 6.9844-7.5156 24.848-8.0898 34.039-9.6641 30.691-5.2578 48.691-19.953 55.297-52.02l-0.003906-0.003906c1.582-7.9297 1.3594-16.109-0.64453-23.941-0.50391-2.2812-3.2266-17.48-4.8477-18.875-2.0898-1.8008-18.695-1.0078-22.633-2.0078h0.003906c-6.9023-1.9609-13.645-4.457-20.156-7.4648-10.309-4.4141-20.297-8.4375-26.504-18.391-7.082-11.355-10.691-26.43-15.473-38.914-26.09 49.047-73.207 76.188-124.02 94.035zm0.81641-13.66c14.414 1.918 32.18-8.375 44.566-15.164v-0.003906c15.402-8.4922 29.59-19.031 42.168-31.324 17.477-16.992 55.93-73.609 18.199-88.324-26.586-10.367-55.898 4.3477-70.855 26.691-10.418 15.559-25.188 33.328-29.324 51.797-4 17.848-3.1758 38.07-4.7539 56.324zm-9.5078-8.9688c-14.695 47.402-12.27 97.34-5.3555 145.86 0.41797 2.9219 0.13672 14.34 2.4883 16.441 2.3633 2.1094 13.844 1.2969 17.684 1.4258 10.266 0.33594 22.75 0.63672 30.645-5.2852 9.3086-6.9844 15.141-16.406 25.742-22.238 6.6562-3.6602 13.773-6.5469 20.73-9.5547 8.0273-3.4766 10.082-0.64844 6.8633-9.3203-0.89453-4.5625-2.0234-9.0781-3.3828-13.523-6.8398-12.41-26.312-6.5391-38.852-6.8711-21.137-0.55859-40.203 0.89062-49.934-21.555-9.2617-21.352-10.18-52.805-6.6289-75.387zm230.76 163.24c9.0664-30.941 5.1914-73.168-5.1055-103.4l-0.003906-0.003906c-6.1211 16.863-19.742 29.918-36.848 35.316-9.7148 3.2539-20.023 4.1523-30.008 6.2461-4.418 0.92578-12.031 1.1523-15.523 3.625-5.125 3.6289-4.1094 10.582-4.8047 17.734 18.352 1.5039 35.379 3.0039 47.434 18.773 4.8203 6.3047 14.492 25.52 14.246 23.953-0.25391-1.5898 22.809-2.2461 30.609-2.2461zm-19.621-176.89c0.44531-25.617-11.391-51.566-26.734-71.566v-0.003907c-7.0312-9.7852-15.941-18.07-26.207-24.375-3.8164-2.5938-8.1562-4.3086-12.711-5.0273-9.2695-0.14062-7.1445 5.3672-6.918 15.055 0.4375 18.703 6.8867 49.805 19.496 65.137 11.203 13.621 37.266 18.297 53.07 20.777z"/>
  <path d="m341.66 337.61c-1.207-9.0391 2.3789-19.254 1.2383-29.895-0.94141-8.7539-4.0078-13.641-13.113-13.98-7.3008-0.27344-14.344-2.9727-21.801-2.3086v-0.003907c-2.1875 0.25781-4.207-1.1914-4.668-3.3398-0.80469-3.4727 1.5273-4.9336 4.1289-5.3711 13.305-2.2227 26.016 1.0352 38.348 5.3789 4.043 1.4258 4.4883 6.5703 5.5625 10.723 3.3789 13.082 0.27734 26.09 0.14453 39.129-0.11328 11.266-3.4961 23.344 8.0234 31.781 0.82031 1.3008 0.93359 2.9219 0.30078 4.3242-1.0547 1.9023-3.3438 2.75-5.3828 1.9844-3.043-0.89062-5.7695-2.6289-7.8594-5.0078-2.0938-2.3828-3.4648-5.3125-3.9531-8.4453-1.4336-8.2422-1.7617-16.641-0.96875-24.969z"/>
  <path d="m308.77 341.14c-2.9531-0.67578-5.0039-2.4883-4.7148-5.3008l0.003906-0.003906c0.042969-2.0898 0.92969-4.0742 2.4609-5.5 1.5352-1.4258 3.5781-2.168 5.668-2.0625 1.0547-0.003906 2.0625 0.44922 2.7539 1.25 0.69141 0.79688 1.0039 1.8555 0.84766 2.9023-0.39844 4.4062-2.2148 7.9102-7.0195 8.7148z"/>
  <path d="m396.48 293.16c6.8242-0.49609 13.625 1.2422 19.379 4.9453 3.6953 2.1523 5.9375 6.1406 5.8477 10.418-0.20313 3.668-4.4336 6.6211-6.1797 3.8867-7.1094-11.125-17.918-8.6172-28.012-9.2422l-0.003906-0.003906c-1.0352-0.058594-2.0703-0.18359-3.0938-0.36328-2.1484-0.24219-3.8203-1.9766-3.9805-4.1328 0.011719-2.1602 1.5352-4.0156 3.6523-4.4453 4.0859-0.64062 8.2578-0.74219 12.391-1.0625z" fill="#080606"/>
  <path d="m397.75 343.4c-2.8789-0.55859-4.9844-2.0977-4.9844-4.9531-0.11719-1.5664 0.50391-3.0938 1.6797-4.1328 1.1719-1.0391 2.7656-1.4688 4.3047-1.1641 2.6172 0.19922 5.0859 1.5352 5.0078 4.6484-0.09375 3.7461-2.8438 5.0742-6.0078 5.6016z"/>
 </g>
</svg>